# xmcd
#
# Track frame offsets:
#	150
#	12721
#	23641
#	35471
#	44627
#	57687
#	69442
#	83351
#	97560
#	109352
#	120671
#	130530
#	140834
#	153721
#	165505
#	178790
#	190666
#	203339
#	216609
#	229353
#
# Disc length: 3193 seconds
#
# Revision: 2
# Processed by: cddbd v1.5.2PL0 Copyright (c) Steve Scherf et al.
# Submitted via: audiograbber 1.83.01
#
DISCID=190c7714
DTITLE=Various Artist - Country Giganten
DYEAR=2009
DGENRE=Country
TTITLE0=Johnny Cash - Ring of Fire (live)
TTITLE1=Guy Mitchell - Singing the blues
TTITLE2=Ray Griff - Ring my bell
TTITLE3=Frankie Laine - Rawhide
TTITLE4=Hank Williams - Jambalaya
TTITLE5=Tennessee Ernie Ford - The shoot Gun Boogie
TTITLE6=Willie Nelson - Home is where you happy
TTITLE7=Gail Gavan - I Pretend
TTITLE8=Patsy Cline - Walking after Midnight
TTITLE9=Don Gibson - Lonesome me
TTITLE10=Jonny Cash and The Tennessee Two - Ballad of a Teenage Queen
TTITLE11=Faron Young - Alone with You
TTITLE12=Jim Reeves - Four Walls
TTITLE13=Tennessee Ernie Ford - Sixteen Tons
TTITLE14=Kitty Wells and Red Foley - One by One
TTITLE15=Dolly Parton - Making Believe
TTITLE16=Hank Snow - The Rhumba Boogie
TTITLE17=Lynn Anderson - Rose Garden
TTITLE18=Kenny Rogers - Ruby dont take your love to town
TTITLE19=Patsy Cline - Three Cigarettes in a Ashtray
EXTD=
EXTT0=
EXTT1=
EXTT2=
EXTT3=
EXTT4=
EXTT5=
EXTT6=
EXTT7=
EXTT8=
EXTT9=
EXTT10=
EXTT11=
EXTT12=
EXTT13=
EXTT14=
EXTT15=
EXTT16=
EXTT17=
EXTT18=
EXTT19=
PLAYORDER=
